<?xml version="1.0" ?><svg data-name="Layer 2" width="30" height="30" id="Layer_2" viewBox="0 0 35 35" xmlns="http://www.w3.org/2000/svg"><path d="M17.24,13.69l-.28,0-.38,0a20.83,20.83,0,0,1-10.44-4,22.29,22.29,0,0,1-3.49-3.3A1.25,1.25,0,0,1,4.55,4.7,19.39,19.39,0,0,0,7.63,7.62a18.28,18.28,0,0,0,8.5,3.46,7.81,7.81,0,0,1,2-5.34A8,8,0,0,1,24.48,3a7.77,7.77,0,0,1,5.08,2.1.57.57,0,0,1,.11.11c.29.32,1.38,1.29,3.07,0a1.25,1.25,0,0,1,1.52,2,4.61,4.61,0,0,1-6.44-.3,5.28,5.28,0,0,0-3.45-1.39A5.58,5.58,0,0,0,20,7.4a5.32,5.32,0,0,0-1.26,4.45,1.54,1.54,0,0,1-.38,1.4A1.44,1.44,0,0,1,17.24,13.69Z"/><path d="M11.65,32A20.9,20.9,0,0,1,1.22,29.1a1.75,1.75,0,0,1-.85-.85A1.24,1.24,0,0,1,1.6,26.48a12.89,12.89,0,0,0,6.56-1.11A7.79,7.79,0,0,1,4.9,23a1.25,1.25,0,1,1,2-1.5c1,1.33,3.59,2.09,4.5,2.18a1.25,1.25,0,0,1,1.08.92A1.24,1.24,0,0,1,12,26a15.4,15.4,0,0,1-5.68,2.68,18.09,18.09,0,0,0,11.55-.25,17.57,17.57,0,0,0,11.77-16.8,1.24,1.24,0,0,1,1.24-1.26h0a1.26,1.26,0,0,1,1.25,1.25A20.07,20.07,0,0,1,18.7,30.76,21.8,21.8,0,0,1,11.65,32Z"/><path d="M2.39,15.06A10.22,10.22,0,0,0,5,17.16a6.72,6.72,0,0,0,3.52,1.17,1.28,1.28,0,0,0,1.25-1.25,1.26,1.26,0,0,0-1.25-1.25H8.16c-.21,0,0,0,.06,0s-.16,0-.19,0l-.35-.1c-.08,0-.31-.07-.35-.13s.2.09,0,0l-.17-.08-.33-.17L6.2,15l-.6-.38-.3-.2-.14-.11,0,0a7.63,7.63,0,0,1-1-1,1.26,1.26,0,0,0-1.77,0,1.28,1.28,0,0,0,0,1.77Z"/></svg>